#!OML:ASF \\sashay\E\Suitcase\Project 1\Capture day 1\Session 1\Male1.ASF
:FULLY-SPECIFIED
:DEGREES
342
root -0.421919 17.3443 20.8505 7.16804 15.1255 -1.43083
lowerback 1.13708 -1.37791 2.38522
upperback -0.681674 -1.76597 2.16917
thorax -1.33993 -0.892303 0.927451
lowerneck -10.0071 -2.61743 -5.37478
upperneck 37.0808 -0.851547 -4.00527
head 14.4957 -1.57223 -0.804656
rclavicle 1.86858e-014 -4.37326e-015
rhumerus -145.799 7.00884 105.585
rradius 16.5042
rwrist 143.913
rhand -14.1403 27.9834
rfingers 7.12502
rthumb 11.9939 -1.65296
lclavicle 1.86858e-014 -4.37326e-015
lhumerus -36.0987 0.694509 86.1538
lradius 32.7151
lwrist -4.66544
lhand -5.22263 43.2016
lfingers 7.12502
lthumb 20.5795 72.1307
rfemur -2.2979 0.926612 27.848
rtibia 8.97754
rfoot -15.6552 -25.6278
rtoes 19.8471
lfemur -10.0087 -8.46656 -10.716
ltibia 17.1022
lfoot -16.1928 -3.9533
ltoes -1.73147
343
root -0.431993 17.3451 20.8342 7.19192 15.008 -1.48311
lowerback 1.49323 -1.41968 2.42832
upperback -0.776069 -1.80238 2.22907
thorax -1.63626 -0.912578 0.977584
lowerneck -10.0591 -2.50573 -5.06634
upperneck 37.0967 -0.641632 -4.33477
head 14.5087 -1.48418 -0.964802
rclavicle -3.10601e-014 -8.34896e-015
rhumerus -145.596 7.87159 106.512
rradius 16.9844
rwrist 145.307
rhand -14.4793 27.9113
rfingers 7.12502
rthumb 11.6669 -1.74383
lclavicle -3.10601e-014 -8.34896e-015
lhumerus -36.1666 0.947734 86.0644
lradius 32.8338
lwrist -4.48313
lhand -5.02264 43.6468
lfingers 7.12502
lthumb 20.7717 72.555
rfemur -2.16139 1.11739 27.9098
rtibia 8.44885
rfoot -15.1193 -25.7803
rtoes 19.1389
lfemur -10.4544 -8.57261 -10.5997
ltibia 17.7368
lfoot -15.9668 -3.55638
ltoes 1.47332
344
root -0.43233 17.3459 20.8284 7.17424 15.0287 -1.56346
lowerback 1.71259 -1.40912 2.65178
upperback -0.866497 -1.77052 2.22849
thorax -1.85932 -0.90082 0.859254
lowerneck -10.113 -2.50191 -5.13266
upperneck 37.2205 -0.664949 -4.17841
head 14.5807 -1.48548 -0.896415
rclavicle -3.65764e-014 2.98177e-014
rhumerus -145.259 9.24864 107.901
rradius 17.6172
rwrist 146.829
rhand -14.2291 27.9266
rfingers 7.12502
rthumb 11.9082 -1.71471
lclavicle -3.65764e-014 2.98177e-014
lhumerus -36.337 0.841299 86.1026
lradius 32.9609
lwrist -4.3983
lhand -4.74541 43.9651
lfingers 7.12502
lthumb 21.038 72.8439
rfemur -2.12436 1.17028 28.0008
rtibia 8.30625
rfoot -15.1547 -25.8089
rtoes 19.8038
lfemur -10.6751 -8.57335 -10.4866
ltibia 18.0769
lfoot -16.209 -3.91614
ltoes -1.81849
345
root -0.43801 17.3386 20.8263 7.10974 15.3312 -2.55968
lowerback 1.82606 -1.41473 3.8055
upperback -1.13389 -1.72454 2.4836
thorax -2.22618 -0.895739 0.484978
lowerneck -9.97008 -2.53077 -5.35133
upperneck 37.4102 -0.717888 -3.99067
head 14.6435 -1.51508 -0.790884
rclavicle 1.90336e-014 -2.78299e-015
rhumerus -144.689 10.2232 108.984
rradius 18.18
rwrist 148.339
rhand -14.3663 27.7671
rfingers 7.12502
rthumb 11.7759 -1.88181
lclavicle 1.90336e-014 -2.78299e-015
lhumerus -36.6835 0.752282 86.2033
lradius 33.1267
lwrist -4.34244
lhand -4.63766 44.2617
lfingers 7.12502
lthumb 21.1415 73.129
rfemur -2.15452 1.09092 29.1387
rtibia 7.8484
rfoot -14.5296 -26.1307
rtoes 18.4047
lfemur -11.2854 -8.36655 -9.28385
ltibia 18.6106
lfoot -16.2071 -4.31638
ltoes 0.863927
346
root -0.44755 17.3474 20.8164 7.3501 15.2398 -1.7871
lowerback 2.27908 -1.38075 3.07636
upperback -1.43871 -1.67083 2.31878
thorax -2.77687 -0.866164 0.738512
lowerneck -9.65765 -2.46269 -5.3984
upperneck 37.6619 -0.62587 -3.95132
head 14.6934 -1.47761 -0.753816
rclavicle 1.88348e-014 -4.05521e-014
rhumerus -143.923 11.7217 110.781
rradius 18.819
rwrist 149.918
rhand -14.7918 28.7102
rfingers 7.12502
rthumb 11.3656 -0.961817
lclavicle 1.88348e-014 -4.05521e-014
lhumerus -37.1819 0.569717 86.3636
lradius 33.3692
lwrist -4.04734
lhand -5.41434 43.7863
lfingers 7.12502
lthumb 20.3953 72.7352
rfemur -2.10842 1.15297 28.3252
rtibia 7.66412
rfoot -14.825 -26.0971
rtoes 20.2042
lfemur -11.5302 -8.56372 -10.0783
ltibia 18.9267
lfoot -16.2571 -4.304
ltoes -0.0995656
